<svg width="27" height="27" viewBox="0 0 27 27" fill="none" xmlns="http://www.w3.org/2000/svg">
<path d="M13.4858 0.102051C6.3101 0.102051 0.47229 5.93381 0.47229 13.1021C0.47229 20.2703 6.3101 26.1021 13.4858 26.1021C20.6615 26.1021 26.4993 20.2703 26.4993 13.1021C26.4993 5.93381 20.6615 0.102051 13.4858 0.102051ZM22.0899 6.09704C23.638 7.98655 24.5755 10.3932 24.6 13.014C24.2335 12.9366 20.5586 12.192 16.86 12.6566C16.5582 11.9206 16.2733 11.2731 15.8831 10.4753C19.9929 8.79905 21.8556 6.41371 22.0899 6.09704ZM20.8542 4.81298C20.6543 5.09746 18.981 7.3441 15.0285 8.82405C13.207 5.48096 11.1882 2.7346 10.881 2.32364C14.406 1.47481 18.1206 2.39021 20.8542 4.81298ZM8.76005 3.07003C9.05311 3.47151 11.0394 6.22128 12.8812 9.49188C7.68171 10.8712 3.10217 10.8513 2.60503 10.8448C3.32581 7.39909 5.65029 4.53531 8.76005 3.07003ZM2.37027 13.119C2.37027 13.0054 2.37252 12.8924 2.37593 12.7797C2.86226 12.7896 8.2488 12.859 13.7998 11.1994C14.118 11.8216 14.422 12.453 14.701 13.0839C10.6815 14.2148 7.02962 17.4623 5.22783 20.5434C3.45248 18.5749 2.37027 15.971 2.37027 13.119ZM6.66298 21.8789C7.82407 19.5079 10.9752 16.4471 15.4565 14.92C17.0171 18.9711 17.6624 22.3663 17.8277 23.3405C14.2536 24.8613 9.95587 24.4441 6.66298 21.8789ZM19.6964 22.3239C19.5825 21.6484 18.9909 18.3979 17.537 14.4069C21.0202 13.8499 24.0805 14.7616 24.4608 14.8815C23.9653 17.9712 22.1901 20.6395 19.6964 22.3239Z" fill="white"/>
</svg>
