<svg width="27" height="27" viewBox="0 0 27 27" fill="none" xmlns="http://www.w3.org/2000/svg">
<path d="M13.7697 6.52436C10.0767 6.52436 7.09789 9.50059 7.09789 13.1904C7.09789 16.8803 10.0767 19.8565 13.7697 19.8565C17.4627 19.8565 20.4415 16.8803 20.4415 13.1904C20.4415 9.50059 17.4627 6.52436 13.7697 6.52436ZM13.7697 17.5242C11.3832 17.5242 9.43216 15.5807 9.43216 13.1904C9.43216 10.8002 11.3774 8.85661 13.7697 8.85661C16.1621 8.85661 18.1073 10.8002 18.1073 13.1904C18.1073 15.5807 16.1562 17.5242 13.7697 17.5242V17.5242ZM22.2706 6.25168C22.2706 7.11612 21.5738 7.80652 20.7145 7.80652C19.8493 7.80652 19.1583 7.11032 19.1583 6.25168C19.1583 5.39304 19.8551 4.69684 20.7145 4.69684C21.5738 4.69684 22.2706 5.39304 22.2706 6.25168ZM26.6895 7.82972C26.5908 5.74694 26.1146 3.90202 24.5875 2.38199C23.0661 0.861968 21.2196 0.386235 19.1351 0.281805C16.9866 0.159971 10.547 0.159971 8.39858 0.281805C6.3198 0.380433 4.47329 0.856167 2.94614 2.37619C1.419 3.89622 0.94866 5.74114 0.84414 7.82392C0.722201 9.97053 0.722201 16.4045 0.84414 18.5511C0.942853 20.6339 1.419 22.4788 2.94614 23.9989C4.47329 25.5189 6.31399 25.9946 8.39858 26.0991C10.547 26.2209 16.9866 26.2209 19.1351 26.0991C21.2196 26.0004 23.0661 25.5247 24.5875 23.9989C26.1088 22.4788 26.585 20.6339 26.6895 18.5511C26.8114 16.4045 26.8114 9.97633 26.6895 7.82972V7.82972ZM23.9139 20.8544C23.461 21.9915 22.5842 22.8675 21.4403 23.3259C19.7273 24.0047 15.6627 23.848 13.7697 23.848C11.8768 23.848 7.8063 23.9989 6.09915 23.3259C4.96105 22.8733 4.08424 21.9973 3.62552 20.8544C2.94614 19.1429 3.10292 15.0818 3.10292 13.1904C3.10292 11.2991 2.95195 7.23216 3.62552 5.52648C4.07844 4.38936 4.95524 3.51331 6.09915 3.05498C7.81211 2.37619 11.8768 2.53284 13.7697 2.53284C15.6627 2.53284 19.7331 2.38199 21.4403 3.05498C22.5784 3.50751 23.4552 4.38356 23.9139 5.52648C24.5933 7.23796 24.4365 11.2991 24.4365 13.1904C24.4365 15.0818 24.5933 19.1487 23.9139 20.8544Z" fill="white"/>
</svg>
