<svg width="39" height="26" viewBox="0 0 39 26" fill="none" xmlns="http://www.w3.org/2000/svg">
<path d="M16.1384 11.65C18.2386 10.5555 19.3349 8.89947 19.3349 6.32179C19.3349 1.23844 15.861 0 11.8521 0H0.816162V25.5176H12.1625C16.4158 25.5176 20.4114 23.2927 20.4114 18.1086C20.4114 14.9045 19.0179 12.5356 16.1384 11.65ZM5.961 4.35613H10.7888C12.6447 4.35613 14.3156 4.92495 14.3156 7.27222C14.3156 9.43949 13.0145 10.3107 11.1785 10.3107H5.961V4.35613ZM11.4625 21.1831H5.961V14.1556H11.5681C13.8334 14.1556 15.2666 15.1853 15.2666 17.7989C15.2666 20.3766 13.5561 21.1831 11.4625 21.1831ZM35.1393 3.85212H25.6487V1.33924H35.1393V3.85212ZM38.8575 16.5461C38.8575 11.0811 35.9252 6.5234 30.6086 6.5234C25.444 6.5234 21.9371 10.7571 21.9371 16.3013C21.9371 22.0543 25.2591 26 30.6086 26C34.6571 26 37.2791 24.0127 38.5405 19.7862H34.4326C33.9901 21.3631 32.1673 22.1983 30.7539 22.1983C28.0263 22.1983 26.5932 20.4558 26.5932 17.4965H38.8179C38.8377 17.1941 38.8575 16.8701 38.8575 16.5461ZM26.5998 14.2996C26.7517 11.8732 28.2311 10.3539 30.4633 10.3539C32.8013 10.3539 33.9769 11.8516 34.175 14.2996H26.5998Z" fill="white"/>
</svg>
